0.16m3min_grf.mot
version=1
nRows=12
nColumns 19
inDegrees=yes
endheader
time	1_ground_force_vx	1_ground_force_vy	1_ground_force_vz	1_ground_force_px	1_ground_force_py	1_ground_force_pz	1_ground_torque_x	1_ground_torque_y	1_ground_torque_z	2_ground_force_vx	2_ground_force_vy	2_ground_force_vz	2_ground_force_px	2_ground_force_py	2_ground_force_pz	2_ground_torque_x	2_ground_torque_y	2_ground_torque_z
            3.751500	           16.751053	         1096.195536	          -36.613034	           -0.294480	            0.006364	           -0.440893	            0.117026	            7.658258	           -0.255787	            3.971099	         1099.578700	           55.447647	           -0.296673	            0.005208	           -0.640332	           -0.030591	           -8.470499	           -0.427136
            3.752000	           16.522654	         1095.473371	          -36.340421	           -0.294455	            0.006364	           -0.440849	            0.118210	            7.837477	           -0.259995	            3.368594	         1097.735809	           55.206695	           -0.296668	            0.005207	           -0.639985	           -0.025535	           -8.321038	           -0.418477
            3.752500	           16.479089	         1094.207872	          -35.520312	           -0.294416	            0.006364	           -0.440896	            0.116579	            7.740813	           -0.251283	            3.556514	         1097.553577	           54.877462	           -0.296538	            0.005207	           -0.640007	           -0.027450	           -8.471123	           -0.423554
            3.753000	           16.389455	         1092.942758	          -34.791801	           -0.294313	            0.006365	           -0.440966	            0.112475	            7.500495	           -0.238764	            3.933808	         1096.819462	           54.499249	           -0.296607	            0.005207	           -0.639864	           -0.031251	           -8.713248	           -0.432948
            3.753500	           15.841098	         1092.038540	          -34.152318	           -0.294343	            0.006365	           -0.441134	            0.106136	            7.316718	           -0.228822	            4.266327	         1095.532270	           54.306797	           -0.296604	            0.005207	           -0.639897	           -0.034940	           -8.972224	           -0.444763
            3.754000	           15.658831	         1092.216957	          -33.692530	           -0.294292	            0.006364	           -0.440847	            0.104445	            7.285094	           -0.224729	            4.129600	         1094.428379	           53.927490	           -0.296570	            0.005207	           -0.639906	           -0.033725	           -8.937939	           -0.440413
            3.754500	           16.118094	         1090.773937	          -33.470575	           -0.294173	            0.006365	           -0.441094	            0.112521	            7.614762	           -0.233660	            3.897680	         1093.693649	           53.174112	           -0.296489	            0.005207	           -0.639756	           -0.031138	           -8.737498	           -0.424807
            3.755000	           15.844503	         1088.969200	          -33.019063	           -0.294278	            0.006365	           -0.441054	            0.114536	            7.871862	           -0.238686	            3.339387	         1092.587322	           52.982696	           -0.296477	            0.005207	           -0.639726	           -0.026074	           -8.531011	           -0.413693
            3.755500	           15.982687	         1087.886907	          -32.840619	           -0.294192	            0.006365	           -0.441022	            0.117708	            8.011971	           -0.241862	            2.920252	         1091.850409	           52.651751	           -0.296529	            0.005206	           -0.639763	           -0.022371	           -8.364286	           -0.403347
            3.756000	           16.167119	         1086.443441	          -32.526262	           -0.294200	            0.006365	           -0.441136	            0.118099	            7.936342	           -0.237601	            3.063399	         1091.114855	           52.508279	           -0.296413	            0.005207	           -0.639720	           -0.023811	           -8.481111	           -0.408141
            3.756500	           15.709990	         1085.540027	          -32.070430	           -0.293953	            0.006366	           -0.441211	            0.110292	            7.621063	           -0.225151	            3.632120	         1089.276360	           52.219900	           -0.296390	            0.005206	           -0.639468	           -0.029279	           -8.780775	           -0.420950
            3.757000	           15.254116	         1084.634451	          -31.110187	           -0.294016	            0.006366	           -0.441247	            0.104031	            7.397037	           -0.212167	            4.293816	         1087.622786	           51.791354	           -0.296380	            0.005206	           -0.639471	           -0.035246	           -8.927817	           -0.425132
